<?xml version="1.0" standalone="no"?><!DOCTYPE svg PUBLIC "-//W3C//DTD SVG 1.1//EN" "http://www.w3.org/Graphics/SVG/1.1/DTD/svg11.dtd"><svg class="icon" width="128px" height="128.00px" viewBox="0 0 1024 1024" version="1.1" xmlns="http://www.w3.org/2000/svg"><path d="M332.799002 686.081014m-332.799002 0a332.799002 332.799002 0 1 0 665.598003 0 332.799002 332.799002 0 1 0-665.598003 0Z" fill="#CCE4F2" /><path d="M883.19735 1024h-639.99808A141.055577 141.055577 0 0 1 102.399693 883.200422v-742.397772A141.055577 141.055577 0 0 1 243.19927 0.003072h516.350451a89.087733 89.087733 0 0 1 63.231811 25.599923l189.695431 189.695431A38.399885 38.399885 0 0 1 1023.996928 243.202342v639.99808a141.055577 141.055577 0 0 1-140.799578 140.799578zM243.19927 76.802842A63.999808 63.999808 0 0 0 179.199462 140.80265v742.397772A63.999808 63.999808 0 0 0 243.19927 947.20023h639.99808a63.999808 63.999808 0 0 0 63.999808-63.999808V259.074295l-179.199462-179.199463a12.799962 12.799962 0 0 0-8.447975-3.07199z" fill="#434260" /><path d="M387.838836 398.849875h41.215877l75.007775 226.303322H465.918602l-18.943943-64.511807h-78.591764l-19.455942 64.511807h-36.095891z m-11.007966 133.887599h61.695814l-8.959973-30.463909c-7.679977-25.599923-14.335957-49.663851-21.247936-75.263774h-1.535995c-6.399981 25.599923-13.567959 51.199846-20.991937 75.263774zM533.758399 398.849875h35.583893v196.095412H665.598003v30.20791h-131.839604zM715.005855 539.393454l-67.839796-140.543579h38.143885l25.599923 60.15982c7.167978 16.895949 13.567959 32.511902 21.247937 49.663851 7.423978-17.151949 14.847955-32.767902 21.503935-49.663851l25.599923-60.15982H819.197542l-68.095795 140.543579v85.759743h-36.095892z" fill="#434260" /></svg>