<?xml version="1.0" standalone="no"?><!DOCTYPE svg PUBLIC "-//W3C//DTD SVG 1.1//EN" "http://www.w3.org/Graphics/SVG/1.1/DTD/svg11.dtd"><svg class="icon" width="128px" height="128.00px" viewBox="0 0 1024 1024" version="1.1" xmlns="http://www.w3.org/2000/svg"><path d="M332.799002 686.081014m-332.799002 0a332.799002 332.799002 0 1 0 665.598003 0 332.799002 332.799002 0 1 0-665.598003 0Z" fill="#D3EFDE" /><path d="M883.19735 1024h-639.99808A141.055577 141.055577 0 0 1 102.399693 883.200422v-742.397772A141.055577 141.055577 0 0 1 243.19927 0.003072h516.350451a89.087733 89.087733 0 0 1 63.231811 25.599923l189.695431 189.695431A38.399885 38.399885 0 0 1 1023.996928 243.202342v639.99808a141.055577 141.055577 0 0 1-140.799578 140.799578zM243.19927 76.802842A63.999808 63.999808 0 0 0 179.199462 140.80265v742.397772A63.999808 63.999808 0 0 0 243.19927 947.20023h639.99808a63.999808 63.999808 0 0 0 63.999808-63.999808V259.074295l-179.199462-179.199463a12.799962 12.799962 0 0 0-8.447975-3.07199z" fill="#434260" /><path d="M300.0311 396.801882h35.583893v196.095411h95.743713v30.20791h-131.327606zM459.518621 526.081494v-127.999616h35.583894v131.583605c0 51.199846 20.223939 67.583797 48.383855 67.583797s49.407852-16.63995 49.407851-67.583797V396.801882h34.303897v127.999616c0 73.727779-33.791899 101.119697-83.711748 101.119696s-83.967748-26.111922-83.967749-99.8397zM725.757823 396.801882H767.997696l75.007775 226.303321h-38.911883l-18.943943-64.511807h-78.847764l-19.455942 64.511807h-36.095891z m-11.007967 133.887598h61.695815L767.997696 500.225571c-7.679977-25.599923-14.335957-49.663851-21.247936-75.263774h-1.535996c-6.399981 25.599923-13.567959 51.199846-20.991937 75.263774z" fill="#434260" /></svg>