<?xml version="1.0" standalone="no"?><!DOCTYPE svg PUBLIC "-//W3C//DTD SVG 1.1//EN" "http://www.w3.org/Graphics/SVG/1.1/DTD/svg11.dtd"><svg class="icon" width="128px" height="128.00px" viewBox="0 0 1024 1024" version="1.1" xmlns="http://www.w3.org/2000/svg"><path fill="#cdcdcd" d="M437.333333 426.666667a180.928 180.928 0 0 1 167.466667 111.786666l14.037333 33.728 36.16 5.077334A106.922667 106.922667 0 0 1 746.666667 682.666667c0 58.816-47.850667 106.666667-106.666667 106.666666H213.333333c-47.061333 0-85.333333-38.272-85.333333-85.333333a85.056 85.056 0 0 1 76.373333-84.864l46.058667-4.778667 9.877333-45.248C278.314667 486.570667 352.768 426.666667 437.333333 426.666667m0-64c-117.44 0-215.488 82.581333-239.552 192.810666A149.354667 149.354667 0 0 0 213.333333 853.333333h426.666667a170.666667 170.666667 0 0 0 170.666667-170.666666c0-86.122667-63.872-157.162667-146.773334-168.810667C626.965333 425.109333 539.456 362.666667 437.333333 362.666667z"  /><path fill="#cdcdcd" d="M954.432 491.050667a24.106667 24.106667 0 0 0-22.976-7.872c-6.016 1.173333-12.074667 2.282667-18.261333 2.986666a221.226667 221.226667 0 0 1-24.512 1.365334c-107.178667 0-199.594667-79.082667-211.584-185.941334a204.010667 204.010667 0 0 1 13.397333-99.050666 23.04 23.04 0 0 0-3.946667-23.573334 24.170667 24.170667 0 0 0-22.976-7.808c-101.802667 20.138667-179.541333 98.026667-203.221333 192.704 21.824 2.026667 42.794667 6.933333 62.592 14.314667a197.12 197.12 0 0 1 89.6-119.722667c-1.258667 16.64-0.938667 33.429333 0.96 50.325334 14.528 129.557333 119.082667 229.290667 248.298667 241.536a198.314667 198.314667 0 0 1-72.405334 50.218666 168.746667 168.746667 0 0 1 19.776 60.778667c67.456-25.92 122.005333-78.272 149.184-146.666667a23.125333 23.125333 0 0 0-3.925333-23.594666z"  /></svg>