<?xml version="1.0" standalone="no"?><!DOCTYPE svg PUBLIC "-//W3C//DTD SVG 1.1//EN" "http://www.w3.org/Graphics/SVG/1.1/DTD/svg11.dtd"><svg class="icon" width="128px" height="128.00px" viewBox="0 0 1024 1024" version="1.1" xmlns="http://www.w3.org/2000/svg"><path d="M812.650667 378.282667a32.106667 32.106667 0 0 1 11.648-43.733334l55.381333-32.064a32.106667 32.106667 0 0 1 43.733333 11.648 32.106667 32.106667 0 0 1-11.648 43.733334l-55.381333 32.064a32.085333 32.085333 0 0 1-43.733333-11.648zM835.242667 548.224a32.085333 32.085333 0 0 1 39.168-22.677333l61.845333 16.490666a32.085333 32.085333 0 0 1 22.677333 39.168 32.085333 32.085333 0 0 1-39.168 22.677334l-61.845333-16.490667a32.106667 32.106667 0 0 1-22.677333-39.168zM676.501333 274.090667a32.085333 32.085333 0 0 1-22.677333-39.168l16.490667-61.845334a32.085333 32.085333 0 0 1 39.168-22.677333 32.085333 32.085333 0 0 1 22.677333 39.168l-16.490667 61.845333a32.106667 32.106667 0 0 1-39.168 22.677334zM506.538667 296.682667a32.106667 32.106667 0 0 1-43.733334-11.648l-32.064-55.381334a32.106667 32.106667 0 0 1 11.648-43.733333 32.106667 32.106667 0 0 1 43.733334 11.648l32.064 55.381333a32.085333 32.085333 0 0 1-11.648 43.733334z" fill="#F9A825" /><path d="M437.12 448a180.928 180.928 0 0 1 167.466667 111.786667l14.037333 33.728 36.16 5.077333a106.944 106.944 0 0 1 91.669333 105.429333c0 58.816-47.850667 106.666667-106.666666 106.666667h-426.666667c-47.061333 0-85.333333-38.272-85.333333-85.333333a85.056 85.056 0 0 1 76.373333-84.864l46.058667-4.778667 9.877333-45.248C278.122667 507.904 352.576 448 437.12 448m0-64c-117.44 0-215.488 82.581333-239.552 192.810667A149.354667 149.354667 0 0 0 213.12 874.666667h426.666667a170.666667 170.666667 0 0 0 170.666666-170.666667c0-86.122667-63.872-157.162667-146.773333-168.810667C626.752 446.442667 539.264 384 437.12 384z" fill="#A8A8B4" /><path d="M516.522667 397.312a136.917333 136.917333 0 0 1 32.789333-26.773333 138.816 138.816 0 0 1 189.482667 50.517333 138.752 138.752 0 0 1-2.261334 142.634667 171.52 171.52 0 0 1 45.674667 46.634666c46.058667-62.912 53.546667-149.546667 11.968-221.333333a202.666667 202.666667 0 0 0-348.032-4.629333 242.986667 242.986667 0 0 1 70.378667 12.949333z" fill="#F9A825" /></svg>