<?xml version="1.0" standalone="no"?><!DOCTYPE svg PUBLIC "-//W3C//DTD SVG 1.1//EN" "http://www.w3.org/Graphics/SVG/1.1/DTD/svg11.dtd"><svg class="icon" width="128px" height="128.00px" viewBox="0 0 1024 1024" version="1.1" xmlns="http://www.w3.org/2000/svg"><path d="M485.589333 832c-11.733333 0-21.333333-9.6-21.333333-21.333333V576c0-11.733333 9.6-21.333333 21.333333-21.333333s21.333333 9.6 21.333334 21.333333v234.666667c0 11.733333-9.6 21.333333-21.333334 21.333333z" fill="#26B2EF" /><path d="M727.189333 341.418667C689.834667 253.589333 602.794667 192 501.333333 192c-117.44 0-215.488 82.581333-239.552 192.810667A149.354667 149.354667 0 0 0 128 533.333333c0 75.392 55.936 137.578667 128.533333 147.712L277.333333 618.666667c-47.061333 0-85.333333-38.272-85.333333-85.333334a85.056 85.056 0 0 1 76.373333-84.864l46.058667-4.757333 9.877333-45.248C342.314667 315.925333 416.768 256 501.333333 256a181.162667 181.162667 0 0 1 166.954667 110.464l16.362667 38.506667 41.834666 0.448C784.682667 406.058667 832 453.866667 832 512c0 58.816-47.850667 106.666667-106.666667 106.666667l-21.333333 64h21.333333a170.666667 170.666667 0 0 0 170.666667-170.666667c0-93.632-75.413333-169.557333-168.810667-170.581333z" fill="#A8A8B4" /><path d="M605.696 762.666667c-5.866667 10.154667-18.986667 13.674667-29.141333 7.808l-203.221334-117.333334a21.397333 21.397333 0 0 1-7.808-29.141333c5.866667-10.154667 18.986667-13.674667 29.141334-7.808l203.221333 117.333333c10.154667 5.866667 13.674667 18.986667 7.808 29.141334z" fill="#26B2EF" /><path d="M365.504 762.666667a21.397333 21.397333 0 0 1 7.808-29.141334l203.221333-117.333333a21.397333 21.397333 0 0 1 29.141334 7.808c5.866667 10.154667 2.346667 23.274667-7.808 29.141333l-203.221334 117.333334a21.397333 21.397333 0 0 1-29.141333-7.808z" fill="#26B2EF" /></svg>