<?xml version="1.0" standalone="no"?><!DOCTYPE svg PUBLIC "-//W3C//DTD SVG 1.1//EN" "http://www.w3.org/Graphics/SVG/1.1/DTD/svg11.dtd"><svg class="icon" width="128px" height="128.00px" viewBox="0 0 1024 1024" version="1.1" xmlns="http://www.w3.org/2000/svg"><path fill="#cdcdcd" d="M810.666667 256h-10.666667a32 32 0 0 0 0 64h10.666667v-64z"  /><path fill="#cdcdcd" d="M810.666667 256v64a85.333333 85.333333 0 0 1 0 170.666667H96a32 32 0 0 0 0 64H810.666667a149.333333 149.333333 0 1 0 0-298.666667zM704 597.333333H224a32 32 0 0 0 0 64H704a85.333333 85.333333 0 1 1-85.333333 85.333334v-10.666667a32 32 0 0 0-64 0v10.666667a149.333333 149.333333 0 1 0 149.333333-149.333334z"  /><path fill="#cdcdcd" d="M202.666667 736m-32 0a32 32 0 1 0 64 0 32 32 0 1 0-64 0Z"  /><path fill="#cdcdcd" d="M330.666667 778.666667m-32 0a32 32 0 1 0 64 0 32 32 0 1 0-64 0Z"  /><path fill="#cdcdcd" d="M554.666667 448H202.666667a32 32 0 0 1 0-64H554.666667a85.333333 85.333333 0 1 0-85.333334-85.333333v10.666666a32 32 0 0 1-64 0V298.666667a149.333333 149.333333 0 1 1 149.333334 149.333333z"  /><path fill="#cdcdcd" d="M96 416m-32 0a32 32 0 1 0 64 0 32 32 0 1 0-64 0Z"  /><path fill="#cdcdcd" d="M117.333333 629.333333m-32 0a32 32 0 1 0 64 0 32 32 0 1 0-64 0Z"  /></svg>