<?xml version="1.0" standalone="no"?><!DOCTYPE svg PUBLIC "-//W3C//DTD SVG 1.1//EN" "http://www.w3.org/Graphics/SVG/1.1/DTD/svg11.dtd"><svg class="icon" width="128px" height="128.00px" viewBox="0 0 1024 1024" version="1.1" xmlns="http://www.w3.org/2000/svg"><path fill="#cdcdcd" d="M928 853.333333h-832c-17.6 0-32-14.4-32-32S78.4 789.333333 96 789.333333h832c17.6 0 32 14.4 32 32s-14.4 32-32 32z"  /><path fill="#cdcdcd" d="M245.333333 394.666667m-32 0a32 32 0 1 0 64 0 32 32 0 1 0-64 0Z"  /><path fill="#cdcdcd" d="M117.333333 522.666667m-32 0a32 32 0 1 0 64 0 32 32 0 1 0-64 0Z"  /><path fill="#cdcdcd" d="M394.666667 522.666667m-32 0a32 32 0 1 0 64 0 32 32 0 1 0-64 0Z"  /><path fill="#cdcdcd" d="M117.333333 266.666667m-32 0a32 32 0 1 0 64 0 32 32 0 1 0-64 0Z"  /><path fill="#cdcdcd" d="M394.666667 266.666667m-32 0a32 32 0 1 0 64 0 32 32 0 1 0-64 0Z"  /><path fill="#cdcdcd" d="M725.333333 213.333333c-129.6 0-234.666667 105.066667-234.666666 234.666667 0 11.776 14.336 21.333333 32 21.333333s32-9.557333 32-21.333333a170.666667 170.666667 0 1 1 170.709333 170.666667H96c-17.6 0-32 14.4-32 32S78.4 682.666667 96 682.666667h640c2.496 0 4.885333-0.362667 7.210667-0.896C864.426667 672.597333 960 571.562667 960 448c0-129.6-105.066667-234.666667-234.666667-234.666667z"  /></svg>