<?xml version="1.0" standalone="no"?><!DOCTYPE svg PUBLIC "-//W3C//DTD SVG 1.1//EN" "http://www.w3.org/Graphics/SVG/1.1/DTD/svg11.dtd"><svg class="icon" width="128px" height="128.00px" viewBox="0 0 1024 1024" version="1.1" xmlns="http://www.w3.org/2000/svg"><path d="M522.666667 362.666667c76.458667 0 138.666667 62.208 138.666666 138.666666S599.125333 640 522.666667 640 384 577.792 384 501.333333s62.208-138.666667 138.666667-138.666666m0-64c-111.936 0-202.666667 90.730667-202.666667 202.666666s90.730667 202.666667 202.666667 202.666667 202.666667-90.730667 202.666666-202.666667-90.730667-202.666667-202.666666-202.666666zM522.666667 256c-17.6 0-32-14.4-32-32v-85.333333c0-17.6 14.4-32 32-32s32 14.4 32 32v85.333333c0 17.6-14.4 32-32 32z" fill="#F9A825" /><path d="M522.666667 896c-17.6 0-32-14.4-32-32v-85.333333c0-17.6 14.4-32 32-32s32 14.4 32 32v85.333333c0 17.6-14.4 32-32 32z" fill="#FBB03B" /><path d="M696.554667 327.850667a32.106667 32.106667 0 0 1 0-45.248l60.330666-60.330667a32.106667 32.106667 0 0 1 45.248 0 32.106667 32.106667 0 0 1 0 45.248l-60.330666 60.330667a32.064 32.064 0 0 1-45.248 0zM244.010667 780.394667a32.106667 32.106667 0 0 1 0-45.248l60.330666-60.330667a32.106667 32.106667 0 0 1 45.248 0 32.106667 32.106667 0 0 1 0 45.248l-60.330666 60.330667a32.064 32.064 0 0 1-45.248 0zM349.184 327.850667a32.106667 32.106667 0 0 1-45.248 0l-60.330667-60.330667a32.106667 32.106667 0 0 1 0-45.248 32.106667 32.106667 0 0 1 45.248 0l60.330667 60.330667a32.064 32.064 0 0 1 0 45.248zM801.728 780.394667a32.106667 32.106667 0 0 1-45.248 0l-60.330667-60.330667a32.106667 32.106667 0 0 1 0-45.248 32.106667 32.106667 0 0 1 45.248 0l60.330667 60.330667a32.064 32.064 0 0 1 0 45.248zM277.333333 501.333333c0 17.6-14.4 32-32 32h-85.333333c-17.6 0-32-14.4-32-32S142.4 469.333333 160 469.333333h85.333333c17.6 0 32 14.4 32 32zM917.333333 501.333333c0 17.6-14.4 32-32 32h-85.333333c-17.6 0-32-14.4-32-32s14.4-32 32-32h85.333333c17.6 0 32 14.4 32 32z" fill="#F9A825" /></svg>