<?xml version="1.0" standalone="no"?><!DOCTYPE svg PUBLIC "-//W3C//DTD SVG 1.1//EN" "http://www.w3.org/Graphics/SVG/1.1/DTD/svg11.dtd"><svg class="icon" width="128px" height="128.00px" viewBox="0 0 1024 1024" version="1.1" xmlns="http://www.w3.org/2000/svg"><path fill="#cdcdcd" d="M450.944 222.933333a342.997333 342.997333 0 0 0-16.853333 106.816c0 184.128 144.405333 335.722667 327.701333 350.976C706.261333 748.778667 621.866667 789.333333 530.602667 789.333333 367.424 789.333333 234.666667 659.818667 234.666667 500.629333c0-130.133333 91.221333-243.178667 216.277333-277.696M502.613333 149.333333c-1.002667 0-2.005333 0.042667-3.008 0.149334C315.157333 164.949333 170.666667 319.189333 170.666667 500.629333 170.666667 695.104 332.138667 853.333333 530.602667 853.333333c134.357333 0 256.597333-72.64 318.976-189.610666a31.616 31.616 0 0 0-1.770667-32.768 33.130667 33.130667 0 0 0-30.165333-14.250667c-8.405333 0.682667-16.832 1.28-25.408 1.28-162.197333 0-294.144-129.28-294.144-288.234667 0-46.762667 11.264-91.584 33.472-133.205333a31.658667 31.658667 0 0 0-1.770667-32.789333A32.981333 32.981333 0 0 0 502.613333 149.333333z"  /></svg>