<?xml version="1.0" standalone="no"?><!DOCTYPE svg PUBLIC "-//W3C//DTD SVG 1.1//EN" "http://www.w3.org/Graphics/SVG/1.1/DTD/svg11.dtd"><svg class="icon" width="128px" height="128.00px" viewBox="0 0 1024 1024" version="1.1" xmlns="http://www.w3.org/2000/svg"><path fill="#cdcdcd" d="M810.666667 192h-10.666667a32 32 0 0 0 0 64h10.666667V192z"  /><path fill="#cdcdcd" d="M810.666667 192v64a85.333333 85.333333 0 0 1 0 170.666667H96a32 32 0 0 0 0 64H810.666667a149.333333 149.333333 0 1 0 0-298.666667zM682.666667 554.666667H202.666667a32 32 0 0 0 0 64H682.666667a85.333333 85.333333 0 1 1-85.333334 85.333333v-10.666667a32 32 0 0 0-64 0v10.666667a149.333333 149.333333 0 1 0 149.333334-149.333333z"  /><path fill="#cdcdcd" d="M202.666667 714.666667m-32 0a32 32 0 1 0 64 0 32 32 0 1 0-64 0Z"  /><path fill="#cdcdcd" d="M330.666667 757.333333m-32 0a32 32 0 1 0 64 0 32 32 0 1 0-64 0Z"  /><path fill="#cdcdcd" d="M202.666667 330.666667m-32 0a32 32 0 1 0 64 0 32 32 0 1 0-64 0Z"  /><path fill="#cdcdcd" d="M330.666667 330.666667m-32 0a32 32 0 1 0 64 0 32 32 0 1 0-64 0Z"  /><path fill="#cdcdcd" d="M458.666667 330.666667m-32 0a32 32 0 1 0 64 0 32 32 0 1 0-64 0Z"  /></svg>