<?xml version="1.0" standalone="no"?><!DOCTYPE svg PUBLIC "-//W3C//DTD SVG 1.1//EN" "http://www.w3.org/Graphics/SVG/1.1/DTD/svg11.dtd"><svg class="icon" width="128px" height="128.00px" viewBox="0 0 1024 1024" version="1.1" xmlns="http://www.w3.org/2000/svg"><path fill="#cdcdcd" d="M928 853.333333h-832c-17.6 0-32-14.4-32-32S78.4 789.333333 96 789.333333h832c17.6 0 32 14.4 32 32s-14.4 32-32 32zM928 682.666667h-832c-17.6 0-32-14.4-32-32S78.4 618.666667 96 618.666667h832c17.6 0 32 14.4 32 32s-14.4 32-32 32z"  /><path fill="#cdcdcd" d="M501.333333 394.666667m-32 0a32 32 0 1 0 64 0 32 32 0 1 0-64 0Z"  /><path fill="#cdcdcd" d="M245.333333 394.666667m-32 0a32 32 0 1 0 64 0 32 32 0 1 0-64 0Z"  /><path fill="#cdcdcd" d="M757.333333 394.666667m-32 0a32 32 0 1 0 64 0 32 32 0 1 0-64 0Z"  /><path fill="#cdcdcd" d="M117.333333 522.666667m-32 0a32 32 0 1 0 64 0 32 32 0 1 0-64 0Z"  /><path fill="#cdcdcd" d="M373.333333 522.666667m-32 0a32 32 0 1 0 64 0 32 32 0 1 0-64 0Z"  /><path fill="#cdcdcd" d="M629.333333 522.666667m-32 0a32 32 0 1 0 64 0 32 32 0 1 0-64 0Z"  /><path fill="#cdcdcd" d="M885.333333 522.666667m-32 0a32 32 0 1 0 64 0 32 32 0 1 0-64 0Z"  /><path fill="#cdcdcd" d="M117.333333 266.666667m-32 0a32 32 0 1 0 64 0 32 32 0 1 0-64 0Z"  /><path fill="#cdcdcd" d="M373.333333 266.666667m-32 0a32 32 0 1 0 64 0 32 32 0 1 0-64 0Z"  /><path fill="#cdcdcd" d="M629.333333 266.666667m-32 0a32 32 0 1 0 64 0 32 32 0 1 0-64 0Z"  /><path fill="#cdcdcd" d="M885.333333 266.666667m-32 0a32 32 0 1 0 64 0 32 32 0 1 0-64 0Z"  /></svg>