<?xml version="1.0" standalone="no"?><!DOCTYPE svg PUBLIC "-//W3C//DTD SVG 1.1//EN" "http://www.w3.org/Graphics/SVG/1.1/DTD/svg11.dtd"><svg class="icon" width="128px" height="128.00px" viewBox="0 0 1024 1024" version="1.1" xmlns="http://www.w3.org/2000/svg"><path d="M200.32 835.221333a32.106667 32.106667 0 0 1-11.712-43.712l28.992-50.197333a32.085333 32.085333 0 0 1 43.712-11.712c15.232 8.789333 20.522667 28.48 11.712 43.712l-28.992 50.197333a32.064 32.064 0 0 1-43.712 11.712zM292.757333 933.674667a32.106667 32.106667 0 0 1-11.712-43.712l85.824-148.650667a32.106667 32.106667 0 0 1 43.712-11.712c15.232 8.789333 20.522667 28.48 11.712 43.712l-85.824 148.650667a32.064 32.064 0 0 1-43.712 11.712zM485.312 858.922667a32.085333 32.085333 0 0 1-11.712-43.712l42.666667-73.898667a32.085333 32.085333 0 0 1 43.712-11.712c15.232 8.789333 20.522667 28.48 11.712 43.712l-42.666667 73.898667a32.106667 32.106667 0 0 1-43.712 11.712zM576.256 960.149333a32.106667 32.106667 0 0 1-11.712-43.712l101.098667-175.125333a32.085333 32.085333 0 0 1 43.712-11.712c15.232 8.789333 20.522667 28.48 11.712 43.712l-101.098667 175.125333a32.106667 32.106667 0 0 1-43.712 11.712z" fill="#26B2EF" /><path d="M501.333333 256a181.162667 181.162667 0 0 1 166.954667 110.464l16.362667 38.506667 41.834666 0.448C784.682667 406.058667 832 453.866667 832 512c0 58.816-47.850667 106.666667-106.666667 106.666667H277.333333c-47.061333 0-85.333333-38.272-85.333333-85.333334a85.056 85.056 0 0 1 76.373333-84.864l46.058667-4.778666 9.877333-45.248C342.314667 315.904 416.768 256 501.333333 256m0-64c-117.44 0-215.488 82.581333-239.552 192.810667A149.354667 149.354667 0 0 0 277.333333 682.666667h448a170.666667 170.666667 0 0 0 170.666667-170.666667c0-93.632-75.413333-169.557333-168.810667-170.581333C689.834667 253.589333 602.794667 192 501.333333 192z" fill="#A8A8B4" /><path d="M427.584 960.512a32.085333 32.085333 0 0 1-11.712-43.712l15.104-26.154667a32.085333 32.085333 0 0 1 43.712-11.712c15.232 8.810667 20.522667 28.48 11.712 43.712l-15.104 26.154667a32.106667 32.106667 0 0 1-43.712 11.712zM143.978667 939.178667a32.085333 32.085333 0 0 1-11.712-43.712l15.104-26.154667a32.085333 32.085333 0 0 1 43.712-11.712c15.232 8.810667 20.522667 28.48 11.712 43.712l-15.104 26.154667a32.106667 32.106667 0 0 1-43.712 11.712z" fill="#26B2EF" /></svg>