<?xml version="1.0" standalone="no"?><!DOCTYPE svg PUBLIC "-//W3C//DTD SVG 1.1//EN" "http://www.w3.org/Graphics/SVG/1.1/DTD/svg11.dtd"><svg class="icon" width="128px" height="128.00px" viewBox="0 0 1024 1024" version="1.1" xmlns="http://www.w3.org/2000/svg"><path fill="#cdcdcd" d="M437.333333 384a180.928 180.928 0 0 1 167.466667 111.786667l14.037333 33.728 36.16 5.077333A106.922667 106.922667 0 0 1 746.666667 640c0 58.816-47.850667 106.666667-106.666667 106.666667H213.333333c-47.061333 0-85.333333-38.272-85.333333-85.333334a85.056 85.056 0 0 1 76.373333-84.864l46.058667-4.778666 9.877333-45.248C278.314667 443.904 352.768 384 437.333333 384m0-64c-117.44 0-215.488 82.581333-239.552 192.810667A149.354667 149.354667 0 0 0 213.333333 810.666667h426.666667a170.666667 170.666667 0 0 0 170.666667-170.666667c0-86.122667-63.872-157.162667-146.773334-168.810667C626.965333 382.442667 539.456 320 437.333333 320z"  /><path fill="#cdcdcd" d="M813.226667 343.189333C776.298667 254.442667 688.789333 192 586.666667 192c-106.773333 0-197.312 68.352-231.018667 163.605333l59.413333 23.765334C439.637333 306.858667 508.8 256 586.666667 256a180.928 180.928 0 0 1 167.466666 111.786667l14.037334 33.728 36.16 5.077333A106.922667 106.922667 0 0 1 896 512c0 58.816-47.850667 106.666667-106.666667 106.666667h-39.104l10.666667 64H789.333333a170.666667 170.666667 0 0 0 170.666667-170.666667c0-86.122667-63.872-157.162667-146.773333-168.810667z"  /></svg>