<?xml version="1.0" standalone="no"?><!DOCTYPE svg PUBLIC "-//W3C//DTD SVG 1.1//EN" "http://www.w3.org/Graphics/SVG/1.1/DTD/svg11.dtd"><svg class="icon" width="128px" height="128.00px" viewBox="0 0 1024 1024" version="1.1" xmlns="http://www.w3.org/2000/svg"><path d="M458.666667 299.114667a180.928 180.928 0 0 1 167.466666 111.786666l14.037334 33.728 36.16 5.077334A106.901333 106.901333 0 0 1 768 555.114667c0 58.816-47.850667 106.666667-106.666667 106.666666H234.666667c-47.061333 0-85.333333-38.272-85.333334-85.333333a85.056 85.056 0 0 1 76.373334-84.864l46.058666-4.778667 9.877334-45.248c18.005333-82.538667 92.458667-142.442667 177.024-142.442666m0-64c-117.44 0-215.488 82.581333-239.552 192.810666A149.354667 149.354667 0 0 0 234.666667 725.781333h426.666666a170.666667 170.666667 0 0 0 170.666667-170.666666c0-86.122667-63.872-157.162667-146.773333-168.810667-36.928-88.768-124.437333-151.189333-226.56-151.189333z" fill="#A8A8B4" /><path d="M268.736 939.114667c-11.733333 0-21.333333-9.6-21.333333-21.333334v-128c0-11.733333 9.6-21.333333 21.333333-21.333333s21.333333 9.6 21.333333 21.333333v128c0 11.733333-9.6 21.333333-21.333333 21.333334z" fill="#26B2EF" /><path d="M342.634667 896.448c-5.866667 10.154667-18.986667 13.674667-29.141334 7.808l-110.848-64a21.397333 21.397333 0 0 1-7.808-29.141333c5.866667-10.154667 18.986667-13.674667 29.141334-7.808l110.848 64c10.176 5.866667 13.674667 18.965333 7.808 29.141333z" fill="#26B2EF" /><path d="M194.837333 896.448a21.397333 21.397333 0 0 1 7.808-29.141333l110.848-64a21.397333 21.397333 0 0 1 29.141334 7.808c5.866667 10.154667 2.346667 23.274667-7.808 29.141333l-110.848 64a21.397333 21.397333 0 0 1-29.141334-7.808z" fill="#26B2EF" /><path d="M563.264 939.114667c-11.733333 0-21.333333-9.6-21.333333-21.333334v-128c0-11.733333 9.6-21.333333 21.333333-21.333333s21.333333 9.6 21.333333 21.333333v128c0 11.733333-9.6 21.333333-21.333333 21.333334z" fill="#26B2EF" /><path d="M637.162667 896.448c-5.866667 10.154667-18.986667 13.674667-29.141334 7.808l-110.848-64a21.397333 21.397333 0 0 1-7.808-29.141333c5.866667-10.154667 18.986667-13.674667 29.141334-7.808l110.848 64c10.154667 5.866667 13.674667 18.965333 7.808 29.141333z" fill="#26B2EF" /><path d="M489.365333 896.448a21.397333 21.397333 0 0 1 7.808-29.141333l110.848-64a21.397333 21.397333 0 0 1 29.141334 7.808c5.866667 10.154667 2.346667 23.274667-7.808 29.141333l-110.848 64a21.397333 21.397333 0 0 1-29.141334-7.808z" fill="#26B2EF" /><path d="M956.778667 403.392a19.349333 19.349333 0 0 0-17.642667-8.32c-4.906667 0.405333-9.834667 0.746667-14.848 0.746667-94.762667 0-171.861333-75.541333-171.861333-168.405334 0-27.306667 6.592-53.504 19.562666-77.824a18.538667 18.538667 0 0 0-1.024-19.157333 19.264 19.264 0 0 0-17.621333-8.32c-102.336 8.576-183.466667 90.304-191.402667 189.290667a246.549333 246.549333 0 0 1 72.725334 65.792 137.6 137.6 0 0 1-9.514667-49.92c0-47.893333 25.237333-91.093333 63.914667-116.928-0.405333 5.653333-0.618667 11.349333-0.618667 17.088 0 102.229333 67.349333 189.269333 160.618667 220.288A149.013333 149.013333 0 0 1 771.456 469.333333c-7.082667 0-14.016-0.661333-20.821333-1.621333a170.794667 170.794667 0 0 1 46.741333 63.872c68.053333-8.213333 128.085333-48.32 160.469333-109.034667a18.581333 18.581333 0 0 0-1.066666-19.157333zM659.093333 418.090667c1.642667 3.456 3.328 6.890667 4.8 10.432 2.197333 0.32 4.330667 0.832 6.528 1.216a138.944 138.944 0 0 1-11.328-11.648z" fill="#A8A8B4" /></svg>