<?xml version="1.0" standalone="no"?><!DOCTYPE svg PUBLIC "-//W3C//DTD SVG 1.1//EN" "http://www.w3.org/Graphics/SVG/1.1/DTD/svg11.dtd"><svg class="icon" width="128px" height="128.00px" viewBox="0 0 1024 1024" version="1.1" xmlns="http://www.w3.org/2000/svg"><path d="M458.666667 298.666667a180.928 180.928 0 0 1 167.466666 111.786666l14.037334 33.728 36.16 5.077334A106.922667 106.922667 0 0 1 768 554.666667c0 58.816-47.850667 106.666667-106.666667 106.666666H234.666667c-47.061333 0-85.333333-38.272-85.333334-85.333333a85.056 85.056 0 0 1 76.373334-84.864l46.058666-4.778667 9.877334-45.248C299.648 358.570667 374.101333 298.666667 458.666667 298.666667m0-64c-117.44 0-215.488 82.581333-239.552 192.810666A149.354667 149.354667 0 0 0 234.666667 725.333333h426.666666a170.666667 170.666667 0 0 0 170.666667-170.666666c0-86.122667-63.872-157.162667-146.773333-168.810667C648.298667 297.109333 560.789333 234.666667 458.666667 234.666667z" fill="#A8A8B4" /><path d="M937.344 512.277333a32.106667 32.106667 0 0 1-41.024 19.136l-40.085333-14.592a32.106667 32.106667 0 0 1-19.136-41.024 32.106667 32.106667 0 0 1 41.024-19.136l40.085333 14.592a32.128 32.128 0 0 1 19.136 41.024zM575.530667 236.117333a32.064 32.064 0 0 1-42.517334-15.488L514.986667 181.973333a32.064 32.064 0 0 1 15.488-42.517333 32.064 32.064 0 0 1 42.517333 15.488l18.026667 38.677333a32.042667 32.042667 0 0 1-15.488 42.496zM758.826667 129.472a32.106667 32.106667 0 0 1 19.136 41.024l-14.592 40.085333a32.106667 32.106667 0 0 1-41.024 19.136 32.106667 32.106667 0 0 1-19.136-41.024l14.592-40.085333a32.128 32.128 0 0 1 41.024-19.136zM927.36 283.925333a32.064 32.064 0 0 1-15.488 42.517334l-38.677333 18.026666a32.064 32.064 0 0 1-42.517334-15.488 32.064 32.064 0 0 1 15.488-42.517333l38.677334-18.026667a32.064 32.064 0 0 1 42.517333 15.488z" fill="#F9A825" /><path d="M268.736 938.666667c-11.733333 0-21.333333-9.6-21.333333-21.333334v-128c0-11.733333 9.6-21.333333 21.333333-21.333333s21.333333 9.6 21.333333 21.333333v128c0 11.733333-9.6 21.333333-21.333333 21.333334z" fill="#26B2EF" /><path d="M342.634667 896c-5.866667 10.154667-18.986667 13.674667-29.141334 7.808l-110.848-64A21.397333 21.397333 0 0 1 194.837333 810.666667c5.866667-10.154667 18.986667-13.674667 29.141334-7.808l110.848 64c10.176 5.866667 13.674667 18.986667 7.808 29.141333z" fill="#26B2EF" /><path d="M194.837333 896a21.397333 21.397333 0 0 1 7.808-29.141333l110.848-64a21.397333 21.397333 0 0 1 29.141334 7.808c5.866667 10.154667 2.346667 23.274667-7.808 29.141333l-110.848 64A21.397333 21.397333 0 0 1 194.837333 896z" fill="#26B2EF" /><path d="M563.264 938.666667c-11.733333 0-21.333333-9.6-21.333333-21.333334v-128c0-11.733333 9.6-21.333333 21.333333-21.333333s21.333333 9.6 21.333333 21.333333v128c0 11.733333-9.6 21.333333-21.333333 21.333334z" fill="#26B2EF" /><path d="M637.162667 896c-5.866667 10.154667-18.986667 13.674667-29.141334 7.808l-110.848-64A21.397333 21.397333 0 0 1 489.365333 810.666667c5.866667-10.154667 18.986667-13.674667 29.141334-7.808l110.848 64c10.154667 5.866667 13.674667 18.986667 7.808 29.141333z" fill="#26B2EF" /><path d="M489.365333 896a21.397333 21.397333 0 0 1 7.808-29.141333l110.848-64a21.397333 21.397333 0 0 1 29.141334 7.808c5.866667 10.154667 2.346667 23.274667-7.808 29.141333l-110.848 64A21.397333 21.397333 0 0 1 489.365333 896z" fill="#26B2EF" /><path d="M631.872 306.517333a105.856 105.856 0 0 1 61.290667 3.370667c45.696 16.64 72.682667 61.482667 69.44 107.754667a171.136 171.136 0 0 1 50.709333 59.562666c1.258667-2.901333 2.645333-5.696 3.754667-8.725333a170.666667 170.666667 0 0 0-101.994667-218.752c-49.152-17.898667-100.906667-11.306667-142.976 12.842667a247.893333 247.893333 0 0 1 59.776 43.946666z" fill="#F9A825" /></svg>