<?xml version="1.0" standalone="no"?><!DOCTYPE svg PUBLIC "-//W3C//DTD SVG 1.1//EN" "http://www.w3.org/Graphics/SVG/1.1/DTD/svg11.dtd"><svg class="icon" width="128px" height="128.00px" viewBox="0 0 1024 1024" version="1.1" xmlns="http://www.w3.org/2000/svg"><path d="M250.645333 876.074667a32.106667 32.106667 0 0 1-11.712-43.712l27.946667-48.384a32.085333 32.085333 0 0 1 43.712-11.712c15.232 8.789333 20.522667 28.48 11.712 43.712l-27.946667 48.384a32.085333 32.085333 0 0 1-43.712 11.712zM486.421333 911.104a32.106667 32.106667 0 0 1-11.712-43.712l48.149334-83.413333a32.106667 32.106667 0 0 1 43.712-11.712c15.232 8.789333 20.522667 28.48 11.712 43.712l-48.149334 83.413333a32.106667 32.106667 0 0 1-43.712 11.712z" fill="#26B2EF" /><path d="M458.666667 298.666667a180.928 180.928 0 0 1 167.466666 111.786666l14.037334 33.728 36.16 5.077334A106.922667 106.922667 0 0 1 768 554.666667c0 58.816-47.850667 106.666667-106.666667 106.666666H234.666667c-47.061333 0-85.333333-38.272-85.333334-85.333333a85.056 85.056 0 0 1 76.373334-84.864l46.058666-4.778667 9.877334-45.248C299.648 358.570667 374.101333 298.666667 458.666667 298.666667m0-64c-117.44 0-215.488 82.581333-239.552 192.810666A149.354667 149.354667 0 0 0 234.666667 725.333333h426.666666a170.666667 170.666667 0 0 0 170.666667-170.666666c0-86.122667-63.872-157.162667-146.773333-168.810667C648.298667 297.109333 560.789333 234.666667 458.666667 234.666667z" fill="#A8A8B4" /><path d="M956.778667 402.965333a19.349333 19.349333 0 0 0-17.642667-8.32c-4.906667 0.405333-9.834667 0.746667-14.848 0.746667-94.762667 0-171.861333-75.541333-171.861333-168.405333 0-27.306667 6.592-53.504 19.562666-77.824a18.538667 18.538667 0 0 0-1.024-19.157334 19.285333 19.285333 0 0 0-17.642666-8.32c-102.336 8.576-183.466667 90.304-191.402667 189.290667a246.549333 246.549333 0 0 1 72.725333 65.792 137.6 137.6 0 0 1-9.514666-49.92c0-47.893333 25.237333-91.093333 63.914666-116.928-0.405333 5.653333-0.618667 11.349333-0.618666 17.088 0 102.229333 67.349333 189.269333 160.618666 220.288a148.906667 148.906667 0 0 1-77.632 21.632c-7.082667 0-14.016-0.661333-20.821333-1.621333a170.794667 170.794667 0 0 1 46.741333 63.872c68.053333-8.213333 128.085333-48.32 160.469334-109.034667a18.517333 18.517333 0 0 0-1.024-19.178667zM659.093333 417.664c1.642667 3.456 3.328 6.890667 4.8 10.432 2.197333 0.32 4.330667 0.832 6.528 1.216a142.272 142.272 0 0 1-11.328-11.648z" fill="#A8A8B4" /></svg>