<?xml version="1.0" standalone="no"?><!DOCTYPE svg PUBLIC "-//W3C//DTD SVG 1.1//EN" "http://www.w3.org/Graphics/SVG/1.1/DTD/svg11.dtd"><svg class="icon" width="128px" height="128.00px" viewBox="0 0 1024 1024" version="1.1" xmlns="http://www.w3.org/2000/svg"><path d="M250.645333 876.074667a32.106667 32.106667 0 0 1-11.712-43.712l27.946667-48.384a32.085333 32.085333 0 0 1 43.712-11.712c15.232 8.789333 20.522667 28.48 11.712 43.712l-27.946667 48.384a32.085333 32.085333 0 0 1-43.712 11.712zM486.421333 911.104a32.106667 32.106667 0 0 1-11.712-43.712l48.149334-83.413333a32.106667 32.106667 0 0 1 43.712-11.712c15.232 8.789333 20.522667 28.48 11.712 43.712l-48.149334 83.413333a32.106667 32.106667 0 0 1-43.712 11.712z" fill="#26B2EF" /><path d="M458.666667 298.218667a180.928 180.928 0 0 1 167.466666 111.786666l14.037334 33.728 36.16 5.077334A106.944 106.944 0 0 1 768 554.218667c0 58.816-47.850667 106.666667-106.666667 106.666666H234.666667c-47.061333 0-85.333333-38.272-85.333334-85.333333a85.056 85.056 0 0 1 76.373334-84.864l46.058666-4.778667 9.877334-45.248c18.005333-82.517333 92.458667-142.442667 177.024-142.442666m0-64c-117.44 0-215.488 82.581333-239.552 192.810666A149.333333 149.333333 0 0 0 234.666667 724.885333h426.666666a170.666667 170.666667 0 0 0 170.666667-170.666666c0-86.122667-63.872-157.162667-146.773333-168.810667-36.928-88.746667-124.437333-151.189333-226.56-151.189333z" fill="#A8A8B4" /><path d="M937.344 511.850667a32.106667 32.106667 0 0 1-41.024 19.136l-40.085333-14.592a32.106667 32.106667 0 0 1-19.136-41.024 32.106667 32.106667 0 0 1 41.024-19.136l40.085333 14.592a32.128 32.128 0 0 1 19.136 41.024zM575.530667 235.690667a32.064 32.064 0 0 1-42.517334-15.488L514.986667 181.546667a32.064 32.064 0 0 1 15.488-42.517334 32.064 32.064 0 0 1 42.517333 15.488l18.026667 38.677334a32.064 32.064 0 0 1-15.488 42.496zM758.826667 129.045333a32.106667 32.106667 0 0 1 19.136 41.024l-14.592 40.085334a32.106667 32.106667 0 0 1-41.024 19.136 32.106667 32.106667 0 0 1-19.136-41.024l14.592-40.085334a32.106667 32.106667 0 0 1 41.024-19.136zM927.36 283.477333a32.064 32.064 0 0 1-15.488 42.517334l-38.677333 18.026666a32.064 32.064 0 0 1-42.517334-15.488 32.064 32.064 0 0 1 15.488-42.517333l38.677334-18.026667a32.085333 32.085333 0 0 1 42.517333 15.488zM631.872 306.090667a105.856 105.856 0 0 1 61.290667 3.370666c45.696 16.64 72.682667 61.482667 69.44 107.754667a171.136 171.136 0 0 1 50.709333 59.562667c1.258667-2.901333 2.645333-5.696 3.754667-8.725334a170.666667 170.666667 0 0 0-101.994667-218.752c-49.152-17.898667-100.906667-11.306667-142.976 12.842667 22.122667 11.605333 42.24 26.453333 59.776 43.946667z" fill="#F9A825" /></svg>