<?xml version="1.0" standalone="no"?><!DOCTYPE svg PUBLIC "-//W3C//DTD SVG 1.1//EN" "http://www.w3.org/Graphics/SVG/1.1/DTD/svg11.dtd"><svg class="icon" width="128px" height="128.00px" viewBox="0 0 1024 1024" version="1.1" xmlns="http://www.w3.org/2000/svg"><path d="M501.333333 256a181.162667 181.162667 0 0 1 166.954667 110.464l16.362667 38.506667 41.834666 0.448C784.682667 406.058667 832 453.866667 832 512c0 58.816-47.850667 106.666667-106.666667 106.666667H277.333333c-47.061333 0-85.333333-38.272-85.333333-85.333334a85.056 85.056 0 0 1 76.373333-84.864l46.058667-4.778666 9.877333-45.248C342.314667 315.904 416.768 256 501.333333 256m0-64c-117.44 0-215.488 82.581333-239.552 192.810667A149.354667 149.354667 0 0 0 277.333333 682.666667h448a170.666667 170.666667 0 0 0 170.666667-170.666667c0-93.632-75.413333-169.557333-168.810667-170.581333C689.834667 253.589333 602.794667 192 501.333333 192z" fill="#A8A8B4" /><path d="M208 860.501333a32.085333 32.085333 0 0 1-11.712-43.712l42.666667-73.898666a32.085333 32.085333 0 0 1 43.712-11.712c15.232 8.810667 20.522667 28.48 11.712 43.712l-42.666667 73.898666a32.064 32.064 0 0 1-43.712 11.712zM335.978667 934.4a32.085333 32.085333 0 0 1-11.712-43.712l85.333333-147.797333a32.106667 32.106667 0 0 1 43.712-11.712c15.232 8.810667 20.522667 28.48 11.712 43.712l-85.333333 147.797333a32.085333 32.085333 0 0 1-43.712 11.712zM639.36 917.333333c-11.733333 0-21.333333-9.6-21.333333-21.333333v-149.333333c0-11.733333 9.6-21.333333 21.333333-21.333334s21.333333 9.6 21.333333 21.333334v149.333333c0 11.733333-9.6 21.333333-21.333333 21.333333z" fill="#26B2EF" /><path d="M722.496 869.333333c-5.866667 10.154667-18.986667 13.674667-29.141333 7.808l-129.322667-74.666666a21.397333 21.397333 0 0 1-7.808-29.141334c5.866667-10.154667 18.986667-13.674667 29.141333-7.808l129.322667 74.666667c10.154667 5.866667 13.674667 18.986667 7.808 29.141333z" fill="#26B2EF" /><path d="M556.224 869.333333c5.866667 10.154667 18.986667 13.674667 29.141333 7.808l129.322667-74.666666c10.154667-5.866667 13.674667-18.986667 7.808-29.141334a21.397333 21.397333 0 0 0-29.141333-7.808l-129.322667 74.666667c-10.176 5.866667-13.674667 18.986667-7.808 29.141333z" fill="#26B2EF" /></svg>