<?xml version="1.0" standalone="no"?><!DOCTYPE svg PUBLIC "-//W3C//DTD SVG 1.1//EN" "http://www.w3.org/Graphics/SVG/1.1/DTD/svg11.dtd"><svg class="icon" width="128px" height="128.00px" viewBox="0 0 1024 1024" version="1.1" xmlns="http://www.w3.org/2000/svg"><path d="M632.213333 911.957333a32.085333 32.085333 0 0 1-8.789333-44.394666l86.016-128.469334a32.085333 32.085333 0 0 1 44.394667-8.789333c14.634667 9.792 18.581333 29.76 8.789333 44.394667l-86.016 128.469333a32.106667 32.106667 0 0 1-44.394667 8.789333zM593.237333 401.450667L346.069333 736.021333h114.752V917.333333L661.333333 645.930667h-133.674666zM184.832 911.957333a32.085333 32.085333 0 0 1-8.789333-44.394666l86.016-128.469334a32.085333 32.085333 0 0 1 44.394666-8.789333c14.634667 9.792 18.581333 29.76 8.789334 44.394667l-86.016 128.469333a32.106667 32.106667 0 0 1-44.394667 8.789333z" fill="#26B2EF" /><path d="M727.189333 341.418667C689.834667 253.589333 602.794667 192 501.333333 192c-117.44 0-215.488 82.581333-239.552 192.810667A149.354667 149.354667 0 0 0 277.333333 682.666667h65.493334l47.274666-64H277.333333c-47.061333 0-85.333333-38.272-85.333333-85.333334a85.056 85.056 0 0 1 76.373333-84.864l46.058667-4.778666 9.877333-45.248C342.314667 315.904 416.768 256 501.333333 256a181.162667 181.162667 0 0 1 166.954667 110.464l16.362667 38.506667 41.834666 0.448C784.682667 406.058667 832 453.866667 832 512c0 58.816-47.850667 106.666667-106.666667 106.666667h-7.68l-47.274666 64H725.333333a170.666667 170.666667 0 0 0 170.666667-170.666667c0-93.632-75.413333-169.557333-168.810667-170.581333z" fill="#A8A8B4" /></svg>