<?xml version="1.0" standalone="no"?><!DOCTYPE svg PUBLIC "-//W3C//DTD SVG 1.1//EN" "http://www.w3.org/Graphics/SVG/1.1/DTD/svg11.dtd"><svg class="icon" width="128px" height="128.00px" viewBox="0 0 1024 1024" version="1.1" xmlns="http://www.w3.org/2000/svg"><path fill="#cdcdcd" d="M309.354667 384c93.76 0 150.762667 82.197333 174.528 126.208C424.085333 630.293333 338.133333 640 312.277333 640 259.392 640 170.666667 623.189333 170.666667 510.656 170.666667 400.448 257.557333 384 309.354667 384m0-64C184.341333 320 106.666667 393.045333 106.666667 510.656 106.666667 629.909333 185.450667 704 312.277333 704c36.906667 0 163.221333-13.418667 238.613334-186.090667l3.776-8.64-3.968-8.554666C531.093333 458.304 455.722667 320 309.354667 320z"  /><path fill="#cdcdcd" d="M735.978667 384c51.797333 0 138.688 16.448 138.688 126.656C874.666667 623.189333 785.941333 640 733.056 640c-25.856 0-111.808-9.706667-171.626667-129.792C585.216 466.197333 642.218667 384 735.978667 384m0-64c-146.368 0-221.738667 138.304-241.344 180.714667l-3.968 8.554666 3.776 8.64C569.834667 690.581333 696.149333 704 733.056 704 859.882667 704 938.666667 629.909333 938.666667 510.656 938.666667 393.045333 860.992 320 735.978667 320z"  /></svg>